<svg id="Capa_1" data-name="Capa 1" xmlns="http://www.w3.org/2000/svg" viewBox="0 0 167 211"><defs><style>.cls-1{fill:#666;}</style></defs><path class="cls-1" d="M92,166.52a61.73,61.73,0,0,1-61.18-62.43c.25-34.21,28.56-62,62.67-61.59,33.81.44,61.39,28.9,60.91,62.86A61.65,61.65,0,0,1,92,166.52ZM131.31,63.06C106.68,40.6,69.84,43.15,49.23,67.92,28.38,93,35,127.27,51.27,142.16L65.5,126.92c2.24,4,1.26,6.65-1.72,9.2-3.46,3-6.57,6.38-10,9.8,16.83,14.91,35.64,19.32,56.09,12.7,22.68-7.34,35.77-23.93,38.94-47.43,2.27-16.86-2.64-32-14.32-44.84-4.14,4-8.1,7.48-11.58,11.36-2.66,3-5.25,4.13-9.66,1.42Z"/><path class="cls-1" d="M114.83,84.06c.68,9.45-7.18,19.7-16,21.17-4.37.73-5.49-.3-5.24-4.76C94.15,90.21,103.75,82.67,114.83,84.06Z"/><path class="cls-1" d="M114.63,125.75c.16,9.52-6.7,18.6-15.57,20.84-4.93,1.25-6.38,0-5.84-5.2C94.31,131.1,103.91,124,114.63,125.75Z"/><path class="cls-1" d="M94.18,125.75c-3.36-11.5,7.6-22.72,20.36-20.84C116.12,115.78,104.69,127.47,94.18,125.75Z"/><path class="cls-1" d="M69.84,125.35c10.83-1.3,19.82,5.68,20.87,15.92.56,5.44-.47,6.35-5.66,5C76.07,144,69.11,134.57,69.84,125.35Z"/><path class="cls-1" d="M90.09,104.92c-10.66,1-21.26-10.23-19.85-21.09C82.56,81.6,93.69,93.44,90.09,104.92Z"/><path class="cls-1" d="M90.3,125.9c-11.19.44-20.87-9.77-20.41-21.32,6.34-1.28,11.56,1.16,16,5.36A15.41,15.41,0,0,1,90.3,125.9Z"/><path class="cls-1" d="M93,59.49c7.38,7.06,8.64,19.66,2.67,26.86-2.62,3.16-3.86,3.12-6.35-.19C83.6,78.57,85.39,65.54,93,59.49Z"/></svg>