<svg id="Capa_1" data-name="Capa 1" xmlns="http://www.w3.org/2000/svg" viewBox="0 0 167 211"><defs><style>.cls-1{fill:#666;}</style></defs><path class="cls-1" d="M90.39,158.27H49c-6.18,0-6.52-.32-6.52-6.35,0-14.26,0-28.53.05-42.79,0-2.56-.8-4.07-2.77-5.89a24.94,24.94,0,0,1-6.27-9.1c-.82-2.16-.19-5.48.95-7.67,4.76-9,10-17.8,15-26.75a5.09,5.09,0,0,1,5.12-2.91q36,.08,72,0A5.42,5.42,0,0,1,131.9,60c4.57,8.34,9.29,16.59,14,24.86,3.64,6.43,2.7,13.29-3.46,17.43-3.81,2.55-4.32,5.4-4.26,9.38.17,13.43.06,26.86.06,40.3,0,6.12-.14,6.26-6.11,6.26Zm-42-51.4v45.58h10v-4.11c0-8.55-.08-17.11,0-25.66.09-6.9,3.82-10.52,10.66-10.63,2,0,4,0,6.06,0,7,.09,10.74,3.73,10.85,10.83.08,5.34,0,10.69,0,16v13.58h46.4c.28-.31.43-.4.43-.49.07-14.49.15-29,.11-43.47,0-.72-1.08-2-1.69-2-5.49-.21-9.56-3-13.07-6.9-8.93,9.66-20.14,8.58-27.61-.09-10,9.3-15.6,9.33-27.78.17C58.08,104.54,58.08,104.54,48.34,106.87Zm91.84-20.81c-4-7.2-7.9-13.84-11.49-20.63-1.29-2.43-2.8-3.28-5.56-3.27-19.82.13-39.66.48-59.46-.14-7.31-.23-11.54,1.72-14.33,8.5-2.18,5.29-5.5,10.11-8.54,15.54ZM80.46,152.54V128c0-10.52,0-10.52-10.38-10.41-5,.05-6.2,1.27-6.22,6.43,0,7.95,0,15.9,0,23.86v4.65ZM66.38,92A10.17,10.17,0,0,0,77,101a10,10,0,0,0,10.2-9Zm48.3.06H94c-.06,5.22,5.45,9.1,10.72,8.9S114.08,97.25,114.68,92Zm27.59-.26c-6.43,0-12.58,0-18.73,0a15.93,15.93,0,0,0-2.05.25,10.49,10.49,0,0,0,20.78-.26ZM39,92a9.94,9.94,0,0,0,10.24,9c4.23,0,10.38-3.21,10.22-9Z"/><path class="cls-1" d="M107.23,112.07c2.61,0,5.23-.12,7.83,0,4,.23,7,2.87,7.31,6.89a104.94,104.94,0,0,1,0,13.85c-.25,4-3.44,6.73-7.74,6.84-5.09.14-10.2.15-15.29,0-4.58-.14-7.59-3.15-7.74-7.62-.13-4.14-.13-8.3,0-12.45.14-4.39,3-7.26,7.43-7.51C101.77,111.94,104.51,112.07,107.23,112.07Zm-.1,22.08c2.25,0,4.5,0,6.75,0s3.3-1,3.32-3.2c0-3.32,0-6.63,0-10,0-2.3-1-3.48-3.45-3.43-4.5.09-9,.07-13.49,0-2.26,0-3.27,1-3.25,3.18,0,3.31,0,6.63,0,9.94-.05,2.62,1.22,3.6,3.73,3.47C102.86,134.07,105,134.15,107.13,134.15Z"/></svg>