<svg id="Capa_1" data-name="Capa 1" xmlns="http://www.w3.org/2000/svg" viewBox="0 0 167 211"><defs><style>.cls-1{fill:#666;}</style></defs><path class="cls-1" d="M98.52,140.15l1.53,10.76a25.17,25.17,0,0,1,5.1.09c.9.2,1.6,1.34,2.39,2.06-.79.65-1.59,1.85-2.39,1.86q-23.82.17-47.66,0c-.76,0-1.52-1.24-2.28-1.9.77-.71,1.44-1.82,2.33-2a23.71,23.71,0,0,1,5-.09c.45-3.52.88-6.85,1.38-10.75h-4.1c-9.72,0-19.44,0-29.16,0-6.13,0-9-2.74-9-8.88q-.11-34.15,0-68.31c0-6.3,2.85-9,9.27-9q50.34,0,100.66,0c6.6,0,9.53,2.9,9.55,9.6q.08,33.43,0,66.88c0,6.85-2.93,9.66-9.8,9.68-9.48,0-19,0-28.45,0ZM81.11,58.2q-24.9,0-49.8,0c-4.51,0-5.43.89-5.43,5.42q0,33.43,0,66.89c0,4.52.92,5.41,5.44,5.41h99.6c4.7,0,5.67-.93,5.67-5.6q0-33.27,0-66.53c0-4.66-1-5.59-5.68-5.59Q106,58.18,81.11,58.2Zm-14,92.46H95.3c-.42-3.59-.82-6.92-1.2-10.15-3.32-.72-5.81-.92-6.8,3-.69,2.8-3.28,4-6,4.06s-5.36-1.24-6.07-4c-1.07-4.19-3.67-3.72-6.88-3.06C67.91,143.9,67.54,147.14,67.13,150.66ZM84,141.26l-.55-.83H78.87l-.44.93c1,.64,2,1.75,3,1.78S83.13,141.93,84,141.26Z"/><path class="cls-1" d="M81,61.2c16,0,32,.07,48-.06,3.38,0,4.6,1.07,4.58,4.51q-.17,31.48,0,63c0,3.24-1.13,4.36-4.37,4.35q-48-.12-96.06,0c-3.26,0-4.34-1.08-4.32-4.32q.15-31.5,0-63c0-3.38,1-4.58,4.48-4.55C49.22,61.28,65.11,61.2,81,61.2Zm48.2,4.7H33.41v62.34H129.2Z"/><path class="cls-1" d="M63.45,111.73c11.38,0,22.39-.06,33.4.07,2,0,5.16-1.45,5.37,2.6.33,6.37-1.38,9.32-5.58,9.66-3.4.28-6-2-6.45-5.67-.08-.7-.07-1.42-.11-2.4H72.54c-.12,1.08-.16,2.23-.39,3.33A5.91,5.91,0,0,1,65.61,124a6,6,0,0,1-5.46-6.31c0-1.55-.5-3.11-.46-4.66s0-3.42.78-4.74A8.25,8.25,0,0,0,61,101c-2.2-6.62-4-13.39-5.75-20.16-.78-3-1.9-5.55-4.93-6.85a2.86,2.86,0,0,1-1.43-1,25.84,25.84,0,0,1-1.12-3.28c1.06,0,2.3-.28,3.16.15a13.56,13.56,0,0,1,4.64,3.22c1.83,2.26,4.06,2.32,6.58,2.43,13.62.58,27.23,1.34,40.85,1.87,3.2.12,3.86,1.47,3.26,4.26-1,4.63-1.83,9.3-2.83,13.93-1.06,4.94-3.08,7-8,7.66-8.8,1.21-17.61,2.5-26.46,3.18C65.38,106.66,64.31,108.36,63.45,111.73Zm4.48-23.91c-.78-9.47.08-8.62-8.75-8.17C61.27,90.08,60.65,88.29,67.93,87.82Zm11.5.24c0-1.61,0-2.78,0-3.94s-.11-2.5-.18-4l-8.43-.41c.31,1.89.5,3.16.74,4.41s.55,2.67.82,4ZM62.59,92.34c.66,2.43,1.37,4.54,1.81,6.71.71,3.48,2.6,4.46,6.09,3-.22-1.72-.37-3.46-.68-5.17C68.83,91.39,68.81,91.4,62.59,92.34ZM83.26,80.59V88h7.37v-7.4Zm-.05,20.11c6.85-.4,7.73-1.64,6.3-8.51h-6.3ZM73,92.17c.56,3.34,1.07,6.4,1.57,9.36,5.21.29,6.33-2.4,4.26-9.36Zm29-10.91H95.14c-.22,1.3-.47,2.35-.55,3.4s0,2.24,0,3.33C101.64,88.67,102.32,88.05,102,81.26Zm-8,18.06c4.44,0,5.74-1.5,5.91-6.94C93.87,91.15,93,92.17,93.92,99.32ZM66.23,121.16c1.07-1.32,2.38-2.3,2.23-2.93-.23-.94-1.48-1.63-2.3-2.43-.73.77-2,1.5-2,2.32S65.22,119.8,66.23,121.16Zm29.81,0c1.1-1.3,2.44-2.25,2.31-2.87-.22-1-1.45-1.68-2.25-2.5-.75.76-2,1.46-2.1,2.28S95.07,119.77,96,121.16Z"/></svg>