<svg id="Capa_1" data-name="Capa 1" xmlns="http://www.w3.org/2000/svg" viewBox="0 0 167 211"><defs><style>.cls-1{fill:#666;}</style></defs><path class="cls-1" d="M148.43,136v-8.87a6.73,6.73,0,0,0-1.17-.36c-6.61-.65-9.69-5.24-7.67-11.7A3.42,3.42,0,0,1,142,113.4a45.53,45.53,0,0,1,6.06-.08c-1-3-2.73-4.86-5.47-4.92-8.83-.18-17.66-.07-25.51-.07-1.56,1.84-2.7,4.18-3.66,4.11-2.9-.21-1.8-3-1.81-4.68-.1-11.12-.12-22.23,0-33.35,0-2.57-.5-3.6-3.37-3.59q-38.58.17-77.17,0c-2.72,0-3.48.76-3.44,3.48.14,11.32.06,22.64,0,34a7.08,7.08,0,0,1-.17,2.74,3,3,0,0,1-1.91,1.55c-.53.08-1.47-.7-1.75-1.31a6.93,6.93,0,0,1-.33-2.71q0-17.91,0-35.82c0-4.65,1.44-6.14,6.08-6.14q40,0,80,0c4.66,0,6,1.38,6.15,6.12,0,.91.1,1.82.17,3.14,5.25,0,10.37-.07,15.48,0,6.18.11,9.93,4.07,9.86,10.23,0,.41.11.9-.07,1.22-3.05,5.58,1.22,10.33,1.76,15.5.06.55,1,1.21,1.68,1.45,5.42,1.94,8.06,5.92,8.19,11.49.16,7.2,0,14.41.06,21.61,0,2.3-1,3.44-3.35,3.34-1.83-.08-3.66,0-5.38,0-3.36,10.47-7.15,14-14.55,14-7-.07-10.85-3.87-13.82-13.77H67.38c-.42,4.42-2,8.07-5.42,10.83-8,6.42-20.16,2-21.76-8.15-.39-2.51-1.39-3-3.57-2.91-2.46.12-4.93.05-7.4,0-4.13,0-5.57-1.44-5.67-5.51,0-1.12,0-2.23,0-3.76a46.38,46.38,0,0,1-6.41-.09c-1-.14-1.84-1.16-2.76-1.78.92-.72,1.83-2,2.77-2.07,6.48-.18,13-.16,19.44,0,.91,0,1.8,1.19,2.69,1.84-.94.7-1.83,1.9-2.83,2a84.75,84.75,0,0,1-8.48.1v4.94c3.81,0,7.58.08,11.34-.07.67,0,1.5-.91,1.92-1.6,6.09-10.09,18.13-10.15,24.27-.14A3.73,3.73,0,0,0,68,136.29c14.09.09,28.19.05,42.29,0a6.31,6.31,0,0,0,1.27-.39V124.06a8.45,8.45,0,0,1,.07-2.76,20.31,20.31,0,0,1,1.91-3.3c.7,1.06,1.93,2.08,2,3.18.25,4,.09,8,.12,12,0,1,.11,2,.18,2.93l.78.23c.54-.9,1.07-1.8,1.62-2.69a13.6,13.6,0,0,1,22.84-.52C143.51,136.82,143.59,136.86,148.43,136Zm-9.66-32c-1.15-4.68-2.12-9-3.33-13.17a2.9,2.9,0,0,0-2.27-1.36c-5-.13-10.07,0-15.1-.08-1.49,0-2.3.41-2.26,2.09.07,3.49-.07,7,.09,10.48,0,.7,1,2,1.54,2C124.4,104.07,131.36,104,138.77,104Zm-8.9,46.41a9.9,9.9,0,0,0,9.58-9.72,9.54,9.54,0,1,0-9.58,9.72ZM63,140.75a9.5,9.5,0,1,0-9.57,9.68A9.83,9.83,0,0,0,63,140.75Zm53-55.68h20.88c-.64-3.28-1.42-4.54-3.85-4.63-5.6-.21-11.21-.07-17-.07Zm32.53,37.1v-4.48h-4.6C143.41,122,144.36,122.93,148.49,122.17Z"/><path class="cls-1" d="M67.28,83.57c.75-1.25,1.61-2.64,2.46-4,.83,1.31,1.67,2.62,2.54,4l3.25.29C75.05,85,74.88,86.6,74,87.37a6.48,6.48,0,0,0-2.24,7.21c2.71-.6,4.65-1.9,4.94-5a3.12,3.12,0,0,1,.54-1.74,14.16,14.16,0,0,1,2.22-1.67c.44.7.93,1.38,1.32,2.11a1.35,1.35,0,0,1,.13.68H86c-.71,1.36-1.43,2.71-2.35,4.47-.29-.42-.13-.2,0,0L85.27,96c-1.06.3-2.25,1.07-3.14.81-2.93-.86-5.62-1.28-8,1.42,1.87,1.93,4,2.93,6.75,1.78a1.91,1.91,0,0,1,.89-.19c1,.18,2.06.42,3.09.64-.32,1.05-.65,2.1-.93,3l1.69,3.84-4.87.28a1.27,1.27,0,0,1,0,.93,14.47,14.47,0,0,1-1.46,2.08,12.49,12.49,0,0,1-2-1.57,3.38,3.38,0,0,1-.54-1.75c-.29-2.9-1.9-4.62-4.89-5.48-.76,2.87-.37,5.24,1.92,7.39.79.74.85,2.26,1.24,3.42l-2.62.57-3.08,3.51-2.35-4.11A1.79,1.79,0,0,1,66,113c-.82,0-2,.14-2.37-.31a3,3,0,0,1,.22-2.4,4.91,4.91,0,0,1,1.72-1.73c2.41-1.65,2.66-3.89,2-6.55a6.35,6.35,0,0,0-5.34,5.23c-.24,1.08-1.42,2-2.17,2.94L58,107.88l-4.33-.61L56,102.89a2,2,0,0,1-1.06-.66c-.41-.6-.83-1.58-.6-2.11a2.62,2.62,0,0,1,2-1,4.76,4.76,0,0,1,2.36.57c2.6,1.27,4.73.5,6.83-1.4a6.76,6.76,0,0,0-7.5-1.91c-1,.29-2.19-.39-3.3-.63.25-1,.51-2,.68-2.67l-1.82-4.15h5.69c-.09.48-.08.18,0-.09.44-1.06.91-2.11,1.37-3.17.74.95,1.91,1.8,2.14,2.85.63,2.83,1.32,5.41,4.92,6,.6-2.42.64-4.67-1.68-6.39a1.83,1.83,0,0,1-.64-.66c-.5-1.1-.94-2.23-1.39-3.35Z"/><path class="cls-1" d="M88,131.26c-4.92,0-9.85.12-14.76-.09-1.11,0-2.16-1.24-3.24-1.9,1-.72,2.08-2.05,3.13-2.06q15.08-.24,30.16,0c1,0,2,1.38,3,2.12-1.08.64-2.14,1.8-3.24,1.85C98.07,131.38,93,131.26,88,131.26Z"/><path class="cls-1" d="M34.92,122c-4.31,0-8.62.11-12.92-.09-1,0-1.92-1.22-2.88-1.87C20,119.31,21,118,21.89,118Q35,117.71,48,118c.93,0,1.82,1.37,2.73,2.11-1,.64-1.92,1.8-2.93,1.85C43.54,122.11,39.22,122,34.92,122Z"/><path class="cls-1" d="M129.8,136.58a4.55,4.55,0,0,1,4.5,4.18,4.39,4.39,0,1,1-8.77.23A4.56,4.56,0,0,1,129.8,136.58Z"/><path class="cls-1" d="M53.53,145.35a4.43,4.43,0,0,1-4.34-4.28,4.32,4.32,0,0,1,4.11-4.48,4.54,4.54,0,0,1,4.58,4.4A4.73,4.73,0,0,1,53.53,145.35Z"/></svg>